<svg enable-background="new 0 0 512 512" height="512" viewBox="0 0 512 512" width="512" xmlns="http://www.w3.org/2000/svg"><g id="BULINE"><path id="XMLID_1741_" d="m512 256c0 70.692-28.654 134.692-74.981 181.019s-110.327 74.981-181.019 74.981-134.692-28.654-181.019-74.981-74.981-110.327-74.981-181.019 28.654-134.692 74.981-181.019 110.327-74.981 181.019-74.981 134.692 28.654 181.019 74.981 74.981 110.327 74.981 181.019z" fill="#4ace99"/></g><g id="Icons"><g id="XMLID_1679_"><g id="XMLID_1698_"><path id="XMLID_1715_" d="m115.526 414.089h-4.853-4.853c-2.025 0-3.858-.821-5.185-2.148s-2.148-3.16-2.148-5.185v-4.794-4.794h12.186 12.186v4.794 4.794c0 2.025-.821 3.858-2.148 5.185s-3.16 2.148-5.185 2.148z" fill="#27273d"/><path id="XMLID_1714_" d="m226.379 414.089h-4.853-4.853c-2.025 0-3.858-.821-5.185-2.148s-2.148-3.16-2.148-5.185v-4.794-4.794h12.186 12.186v4.794 4.794c0 2.025-.821 3.858-2.148 5.185s-3.16 2.148-5.185 2.148z" fill="#27273d"/><path d="m125.487 243.167c-2.761 0-5-2.239-5-5v-43.086c0-2.761 2.239-5 5-5s5 2.239 5 5v43.086c0 2.761-2.239 5-5 5z" fill="#fff"/><path d="m197.487 243.167c-2.761 0-5-2.239-5-5v-43.086c0-2.761 2.239-5 5-5s5 2.239 5 5v43.086c0 2.761-2.239 5-5 5z" fill="#fff"/><path id="XMLID_1711_" d="m118.862 207.325h5.875 5.875c2.037 0 3.88-.825 5.215-2.16s2.16-3.178 2.16-5.215v-1.896-1.896h23.125 23.125v1.896 1.896c0 2.037.825 3.88 2.16 5.215s3.178 2.16 5.215 2.16h5.875 5.875c2.037 0 3.88-.825 5.215-2.16s2.16-3.178 2.16-5.215v-1.896-1.896-10.271-10.271c0-1.645-.667-3.135-1.745-4.213s-2.568-1.745-4.213-1.745h-10.271-10.271-23.125-23.125-10.271-10.271c-1.645 0-3.135.667-4.213 1.745s-1.745 2.568-1.745 4.213v10.271 10.271 1.896 1.896c0 2.037.825 3.88 2.16 5.215s3.178 2.16 5.215 2.16z" fill="#c4336f"/><path id="XMLID_1710_" d="m210.737 190.945v4.5 4.5c0 2.035-.825 3.88-2.159 5.216s-3.176 2.164-5.211 2.164h-5.875-5.875c-2.04 0-3.885-.827-5.22-2.164-1.335-1.336-2.16-3.181-2.16-5.216v-1.895-1.895h-23.125-23.125v1.895 1.895c0 2.035-.825 3.88-2.159 5.216s-3.176 2.164-5.211 2.164h-5.875-5.875c-2.04 0-3.885-.827-5.22-2.164-1.335-1.336-2.16-3.181-2.16-5.216v-4.5-4.5c0 2.035.825 3.88 2.16 5.216s3.18 2.164 5.22 2.164h5.875 5.875c2.035 0 3.878-.827 5.211-2.164 1.334-1.336 2.159-3.181 2.159-5.216v-1.895-1.895h23.125 23.125v1.895 1.895c0 2.035.825 3.88 2.16 5.216s3.18 2.164 5.22 2.164h5.875 5.875c2.035 0 3.878-.827 5.211-2.164 1.334-1.336 2.159-3.181 2.159-5.216z" fill="#ad2d68"/><path id="XMLID_1709_" d="m258.693 400.128h-93.706-93.706c-4.361 0-8.31-1.768-11.168-4.626s-4.626-6.807-4.626-11.168v-66.5-66.5c0-4.361 1.768-8.31 4.626-11.168s6.807-4.626 11.168-4.626h93.706 93.706c4.361 0 8.31 1.768 11.168 4.626s4.626 6.807 4.626 11.168v66.5 66.5c0 4.361-1.768 8.31-4.626 11.168s-6.807 4.626-11.168 4.626z" fill="#32314b"/><path id="XMLID_1708_" d="m100.795 384.564h-2.309-2.309c-2.952 0-5.625-1.197-7.56-3.131-1.935-1.935-3.131-4.608-3.131-7.56v-56.039-56.039c0-2.952 1.197-5.625 3.131-7.56 1.935-1.935 4.608-3.131 7.56-3.131h2.309 2.309c2.952 0 5.625 1.197 7.56 3.131 1.935 1.935 3.131 4.608 3.131 7.56v56.039 56.039c0 2.952-1.197 5.625-3.131 7.56-1.934 1.934-4.607 3.131-7.56 3.131z" fill="#27273d"/><path id="XMLID_1707_" d="m104.577 383.878c-.585.225-1.198.397-1.83.514-.632.116-1.285.176-1.95.176h-2.31-2.31c-2.95 0-5.623-1.198-7.558-3.134s-3.132-4.611-3.132-7.566v-56.035-56.035c0-2.955 1.197-5.63 3.132-7.566s4.607-3.134 7.558-3.134h2.31 2.31c.665 0 1.318.06 1.95.176s1.245.289 1.83.514c-2.015.765-3.74 2.122-4.961 3.861s-1.939 3.859-1.939 6.149v56.035 56.035c0 2.29.717 4.41 1.939 6.149 1.221 1.739 2.946 3.096 4.961 3.861z" fill="#1f1f30"/><g fill="#27273d"><path id="XMLID_1706_" d="m144.462 384.564h-2.309-2.309c-2.952 0-5.625-1.197-7.56-3.131-1.935-1.935-3.131-4.608-3.131-7.56v-56.039-56.039c0-2.952 1.197-5.625 3.131-7.56 1.935-1.935 4.608-3.131 7.56-3.131h2.309 2.309c2.952 0 5.625 1.197 7.56 3.131 1.935 1.935 3.131 4.608 3.131 7.56v56.039 56.039c0 2.952-1.197 5.625-3.131 7.56-1.935 1.934-4.608 3.131-7.56 3.131z"/><path id="XMLID_1705_" d="m188.129 384.564h-2.309-2.309c-2.952 0-5.625-1.197-7.56-3.131-1.935-1.935-3.131-4.608-3.131-7.56v-56.039-56.039c0-2.952 1.197-5.625 3.131-7.56 1.935-1.935 4.608-3.131 7.56-3.131h2.309 2.309c2.952 0 5.625 1.197 7.56 3.131 1.935 1.935 3.131 4.608 3.131 7.56v56.039 56.039c0 2.952-1.197 5.625-3.131 7.56-1.935 1.934-4.608 3.131-7.56 3.131z"/><path id="XMLID_1704_" d="m231.795 384.564h-2.309-2.309c-2.952 0-5.625-1.197-7.56-3.131-1.935-1.935-3.131-4.608-3.131-7.56v-56.039-56.039c0-2.952 1.197-5.625 3.131-7.56 1.935-1.935 4.608-3.131 7.56-3.131h2.309 2.309c2.952 0 5.625 1.197 7.56 3.131 1.935 1.935 3.131 4.608 3.131 7.56v56.039 56.039c0 2.952-1.197 5.625-3.131 7.56-1.934 1.934-4.607 3.131-7.56 3.131z"/></g><path id="XMLID_1703_" d="m148.244 383.878c-.585.225-1.198.397-1.83.514-.633.116-1.285.176-1.95.176h-2.31-2.31c-2.95 0-5.623-1.198-7.558-3.134s-3.132-4.611-3.132-7.566v-56.035-56.035c0-2.955 1.197-5.63 3.132-7.566s4.607-3.134 7.558-3.134h2.31 2.31c.665 0 1.318.06 1.95.176s1.245.289 1.83.514c-2.015.765-3.74 2.122-4.961 3.861s-1.939 3.859-1.939 6.149v56.035 56.035c0 2.29.717 4.41 1.939 6.149 1.22 1.739 2.946 3.096 4.961 3.861z" fill="#1f1f30"/><path id="XMLID_1702_" d="m191.91 383.878c-.585.225-1.198.397-1.83.514-.632.116-1.285.176-1.95.176h-2.31-2.31c-2.95 0-5.623-1.198-7.558-3.134s-3.132-4.611-3.132-7.566v-56.035-56.035c0-2.955 1.197-5.63 3.132-7.566s4.607-3.134 7.558-3.134h2.31 2.31c.665 0 1.318.06 1.95.176.633.116 1.245.289 1.83.514-2.015.765-3.74 2.122-4.961 3.861s-1.939 3.859-1.939 6.149v56.035 56.035c0 2.29.717 4.41 1.939 6.149 1.221 1.739 2.946 3.096 4.961 3.861z" fill="#1f1f30"/><path id="XMLID_1701_" d="m235.577 383.878c-.585.225-1.198.397-1.83.514-.632.116-1.285.176-1.95.176h-2.31-2.31c-2.95 0-5.623-1.198-7.558-3.134s-3.132-4.611-3.132-7.566v-56.035-56.035c0-2.955 1.197-5.63 3.132-7.566s4.607-3.134 7.558-3.134h2.31 2.31c.665 0 1.318.06 1.95.176.633.116 1.245.289 1.83.514-2.015.765-3.74 2.122-4.961 3.861s-1.939 3.859-1.939 6.149v56.035 56.035c0 2.29.717 4.41 1.939 6.149 1.221 1.739 2.946 3.096 4.961 3.861z" fill="#1f1f30"/><path id="XMLID_1700_" d="m265.987 266.089c0 5.257-.877 10.017-2.294 13.463-1.418 3.445-3.376 5.576-5.539 5.576s-4.121-2.131-5.539-5.576-2.294-8.205-2.294-13.463.877-10.017 2.294-13.463 3.376-5.576 5.539-5.576 4.121 2.131 5.539 5.576c1.417 3.445 2.294 8.205 2.294 13.463z" fill="#464666"/><path id="XMLID_1699_" d="m265.987 288.236c0 4.194-.877 7.99-2.294 10.738-1.418 2.748-3.376 4.448-5.539 4.448s-4.121-1.7-5.539-4.448-2.294-6.545-2.294-10.738.877-7.99 2.294-10.738c1.418-2.748 3.376-4.448 5.539-4.448s4.121 1.7 5.539 4.448c1.417 2.748 2.294 6.544 2.294 10.738z" fill="#515172"/></g><g id="XMLID_1682_"><path d="m332.987 152.172c-2.761 0-5-2.239-5-5v-83.75c0-2.761 2.239-5 5-5s5 2.239 5 5v83.75c0 2.761-2.239 5-5 5z" fill="#fff"/><path d="m404.987 152.172c-2.761 0-5-2.239-5-5v-83.75c0-2.761 2.239-5 5-5s5 2.239 5 5v83.75c0 2.761-2.239 5-5 5z" fill="#fff"/><path id="XMLID_1695_" d="m437.526 397.167h-68.539-68.539c-3.855 0-7.345-1.563-9.872-4.089-2.526-2.526-4.089-6.017-4.089-9.872v-115.539-115.539c0-3.855 1.563-7.345 4.089-9.872 2.526-2.526 6.017-4.089 9.872-4.089h68.539 68.539c3.855 0 7.345 1.563 9.872 4.089 2.526 2.526 4.089 6.017 4.089 9.872v115.539 115.539c0 3.855-1.563 7.345-4.089 9.872-2.527 2.526-6.017 4.089-9.872 4.089z" fill="#fe4583"/><path id="XMLID_1694_" d="m317.487 414.089h-4.853-4.853c-2.025 0-3.858-.821-5.185-2.148s-2.148-3.16-2.148-5.185v-4.794-4.794h12.186 12.186v4.794 4.794c0 2.025-.821 3.858-2.148 5.185s-3.16 2.148-5.185 2.148z" fill="#27273d"/><path id="XMLID_1693_" d="m428.34 414.089h-4.853-4.853c-2.025 0-3.858-.821-5.185-2.148s-2.148-3.16-2.148-5.185v-4.794-4.794h12.186 12.186v4.794 4.794c0 2.025-.821 3.858-2.148 5.185s-3.16 2.148-5.185 2.148z" fill="#27273d"/><path id="XMLID_1692_" d="m318.987 367.089c-3.866 0-7.366-1.567-9.9-4.1-2.533-2.534-4.1-6.034-4.1-9.899v-86-86c0-3.866 1.567-7.366 4.1-9.899 2.534-2.534 6.034-4.101 9.9-4.101 3.866 0 7.366 1.567 9.899 4.101 2.534 2.533 4.1 6.033 4.1 9.899v86 86c0 3.866-1.567 7.366-4.1 9.899s-6.033 4.1-9.899 4.1z" fill="#c4336f"/><path id="XMLID_1691_" d="m324.317 366.043c-.82.34-1.68.602-2.571.78-.891.177-1.814.27-2.759.27-3.87 0-7.37-1.568-9.902-4.101-2.533-2.534-4.098-6.034-4.098-9.899v-86-86c0-3.87 1.565-7.37 4.098-9.902s6.033-4.098 9.902-4.098c.945 0 1.868.092 2.759.27s1.751.44 2.571.78c-2.545 1.045-4.712 2.82-6.244 5.065s-2.426 4.96-2.426 7.885v86 86c0 2.92.895 5.633 2.426 7.878 1.531 2.244 3.699 4.022 6.244 5.072z" fill="#ad2d68"/><path id="XMLID_1690_" d="m368.987 367.089c-3.866 0-7.366-1.567-9.9-4.1-2.533-2.534-4.1-6.034-4.1-9.899v-86-86c0-3.866 1.567-7.366 4.1-9.899 2.534-2.534 6.034-4.101 9.9-4.101 3.866 0 7.366 1.567 9.899 4.101 2.534 2.533 4.1 6.033 4.1 9.899v86 86c0 3.866-1.567 7.366-4.1 9.899s-6.033 4.1-9.899 4.1z" fill="#c4336f"/><path id="XMLID_1689_" d="m418.987 367.089c-3.866 0-7.366-1.567-9.9-4.1-2.533-2.534-4.1-6.034-4.1-9.899v-86-86c0-3.866 1.567-7.366 4.1-9.899 2.534-2.534 6.034-4.101 9.9-4.101 3.866 0 7.366 1.567 9.899 4.101 2.534 2.533 4.1 6.033 4.1 9.899v86 86c0 3.866-1.567 7.366-4.1 9.899s-6.033 4.1-9.899 4.1z" fill="#c4336f"/><path id="XMLID_1688_" d="m390.82 163.172h-22.25-22.25c-1.22 0-2.324-.494-3.123-1.294-.799-.799-1.294-1.903-1.294-3.123v-3.583-3.583c0-1.22.494-2.324 1.294-3.123.799-.799 1.903-1.294 3.123-1.294h22.25 22.25c1.22 0 2.324.494 3.123 1.294s1.294 1.903 1.294 3.123v3.583 3.583c0 1.22-.494 2.324-1.294 3.123-.799.8-1.903 1.294-3.123 1.294z" fill="#fff"/><path id="XMLID_1687_" d="m326.362 75.667h5.875 5.875c2.037 0 3.88-.825 5.215-2.16s2.16-3.178 2.16-5.215v-1.896-1.896h23.125 23.125v1.896 1.896c0 2.037.825 3.88 2.16 5.215s3.178 2.16 5.215 2.16h5.875 5.875c2.037 0 3.88-.825 5.215-2.16s2.16-3.178 2.16-5.215v-1.896-1.896-10.271-10.271c0-1.645-.667-3.135-1.745-4.213s-2.568-1.745-4.213-1.745h-10.271-10.271-23.125-23.125-10.271-10.271c-1.645 0-3.135.667-4.213 1.745s-1.745 2.568-1.745 4.213v10.271 10.271 1.896 1.896c0 2.037.825 3.88 2.16 5.215 1.335 1.334 3.178 2.16 5.215 2.16z" fill="#27273d"/><path id="XMLID_1686_" d="m374.317 366.043c-.82.34-1.68.602-2.571.78-.891.177-1.814.27-2.759.27-3.87 0-7.37-1.568-9.902-4.101-2.533-2.534-4.098-6.034-4.098-9.899v-86-86c0-3.87 1.565-7.37 4.098-9.902s6.033-4.098 9.902-4.098c.945 0 1.868.092 2.759.27s1.751.44 2.571.78c-2.545 1.045-4.712 2.82-6.244 5.065s-2.426 4.96-2.426 7.885v86 86c0 2.92.895 5.633 2.426 7.878 1.531 2.244 3.699 4.022 6.244 5.072z" fill="#ad2d68"/><path id="XMLID_1685_" d="m424.317 366.043c-.82.34-1.68.602-2.571.78-.891.177-1.814.27-2.759.27-3.87 0-7.37-1.568-9.902-4.101-2.533-2.534-4.098-6.034-4.098-9.899v-86-86c0-3.87 1.565-7.37 4.098-9.902s6.033-4.098 9.902-4.098c.945 0 1.868.092 2.759.27s1.751.44 2.571.78c-2.545 1.045-4.712 2.82-6.244 5.065s-2.426 4.96-2.426 7.885v86 86c0 2.92.895 5.633 2.426 7.878 1.531 2.244 3.699 4.022 6.244 5.072z" fill="#ad2d68"/><path id="XMLID_1684_" d="m418.897 147.172c3.841 0 7.319.641 9.836 1.676 2.517 1.036 4.074 2.466 4.074 4.047 0 1.58-1.557 3.011-4.074 4.047s-5.995 1.676-9.836 1.676-7.319-.641-9.836-1.676c-2.517-1.036-4.074-2.466-4.074-4.047 0-1.58 1.557-3.011 4.074-4.047 2.517-1.035 5.995-1.676 9.836-1.676z" fill="#fc68a1"/><path id="XMLID_1683_" d="m435.078 147.172c3.064 0 5.838.641 7.845 1.676 2.008 1.036 3.25 2.466 3.25 4.047 0 1.58-1.242 3.011-3.25 4.047s-4.782 1.676-7.845 1.676-5.838-.641-7.845-1.676c-2.008-1.036-3.25-2.466-3.25-4.047 0-1.58 1.242-3.011 3.25-4.047 2.007-1.035 4.781-1.676 7.845-1.676z" fill="#f98fba"/></g><path id="XMLID_1739_" d="m487.65 414.09v.09.09h-15.215-15.215c-5.4 6.86-11.145 13.435-17.207 19.701s-12.442 12.224-19.112 17.849c-22.275 18.775-47.795 33.82-75.599 44.171s-57.892 16.009-89.302 16.009-61.497-5.657-89.301-16.009-53.324-25.396-75.599-44.171c-6.67-5.625-13.05-11.583-19.112-17.849s-11.808-12.841-17.208-19.701c-.025-.03-.05-.06-.075-.09s-.05-.06-.075-.09h216.51z" fill="#a04830"/><path id="XMLID_1735_" d="m457.22 414.27c-5.4 6.86-11.145 13.435-17.207 19.701s-12.442 12.224-19.112 17.849h-164.901-164.9c-6.67-5.625-13.05-11.583-19.112-17.849s-11.808-12.841-17.208-19.701h201.22z" fill="#8c3f2d"/></g></g></svg>